<svg width="601" height="114" viewBox="0 0 601 114" fill="none" xmlns="http://www.w3.org/2000/svg">
<g clip-path="url(#clip0)">
<path d="M20.2334 1.46675L45.199 67.8037L70.105 1.46675H89.5425V88.0139H74.5632V59.4819L76.0492 21.3203L50.4893 88.0139H39.7303L14.2298 21.3797L15.7159 59.4819V88.0139H0.736557V1.46675H20.2334Z" fill="black"/>
<path d="M103.274 55.2615C103.274 48.9607 104.522 43.2939 107.018 38.2612C109.515 33.1888 113.022 29.3053 117.54 26.6106C122.057 23.8763 127.248 22.5091 133.113 22.5091C141.792 22.5091 148.826 25.3029 154.215 30.8904C159.644 36.4779 162.577 43.8883 163.012 53.1216L163.072 56.5098C163.072 62.8502 161.843 68.517 159.387 73.5101C156.969 78.5032 153.482 82.3669 148.925 85.1013C144.407 87.8356 139.176 89.2027 133.232 89.2027C124.157 89.2027 116.886 86.191 111.417 80.1676C105.988 74.1045 103.274 66.0403 103.274 55.9748V55.2615ZM117.718 56.5098C117.718 63.1276 119.085 68.3189 121.819 72.0835C124.554 75.8085 128.358 77.671 133.232 77.671C138.106 77.671 141.891 75.7689 144.586 71.9646C147.32 68.1604 148.687 62.5927 148.687 55.2615C148.687 48.7625 147.28 43.6109 144.467 39.8067C141.693 36.0024 137.908 34.1003 133.113 34.1003C128.398 34.1003 124.653 35.9826 121.879 39.7472C119.105 43.4722 117.718 49.0598 117.718 56.5098Z" fill="black"/>
<path d="M188.691 23.698L189.107 31.1282C193.863 25.3821 200.104 22.5091 207.832 22.5091C221.226 22.5091 228.042 30.1771 228.279 45.5131V88.0139H213.835V46.3452C213.835 42.2636 212.944 39.2519 211.16 37.3101C209.417 35.3287 206.544 34.338 202.541 34.338C196.716 34.338 192.377 36.9733 189.523 42.2438V88.0139H175.079V23.698H188.691Z" fill="black"/>
<path d="M240.346 55.2615C240.346 48.9607 241.594 43.2939 244.091 38.2612C246.588 33.1888 250.095 29.3053 254.612 26.6106C259.13 23.8763 264.321 22.5091 270.186 22.5091C278.864 22.5091 285.898 25.3029 291.288 30.8904C296.717 36.4779 299.649 43.8883 300.085 53.1216L300.145 56.5098C300.145 62.8502 298.916 68.517 296.459 73.5101C294.042 78.5032 290.555 82.3669 285.997 85.1013C281.48 87.8356 276.249 89.2027 270.305 89.2027C261.23 89.2027 253.958 86.191 248.49 80.1676C243.061 74.1045 240.346 66.0403 240.346 55.9748V55.2615ZM254.79 56.5098C254.79 63.1276 256.158 68.3189 258.892 72.0835C261.626 75.8085 265.431 77.671 270.305 77.671C275.179 77.671 278.963 75.7689 281.658 71.9646C284.392 68.1604 285.76 62.5927 285.76 55.2615C285.76 48.7625 284.353 43.6109 281.539 39.8067C278.765 36.0024 274.981 34.1003 270.186 34.1003C265.47 34.1003 261.725 35.9826 258.951 39.7472C256.177 43.4722 254.79 49.0598 254.79 56.5098Z" fill="black"/>
<path d="M350.732 83.7531C341.845 83.7531 337.95 87.1617 328.454 87.1617C322.855 87.1617 320.055 85.214 320.055 81.5619C320.055 78.7619 321.759 76.0837 324.194 73.2838C327.237 74.5011 330.646 75.2315 334.42 75.2315C348.541 75.2315 357.428 65.7361 357.428 52.832C357.428 45.6495 355.115 38.4671 350.245 33.3541L354.506 28.1195L360.593 32.2585L362.419 33.4759V9.61549H361.932L345.741 29.5803C341.967 27.2673 337.341 25.8065 331.741 25.8065C318.472 25.8065 308.611 33.9628 308.611 48.206C308.611 56.8493 312.02 64.5187 317.863 69.3882L307.394 85.5792C309.707 90.2052 315.916 93.8573 323.95 93.8573C329.794 93.8573 333.811 92.0312 339.046 92.0312C345.011 92.0312 348.785 94.5877 348.785 99.7006C348.785 104.57 344.158 107.614 336.611 107.614C326.872 107.614 317.255 103.353 308.611 93.2486H307.394V109.196C315.307 111.996 326.263 113.092 335.88 113.092C349.88 113.092 364.123 107.127 364.123 95.1964C364.123 89.5965 360.349 83.7531 350.732 83.7531ZM329.915 31.5281C339.654 31.5281 350.489 44.1887 350.489 55.0233C350.489 60.8666 347.08 64.8839 340.872 64.8839C331.741 64.8839 320.298 52.7103 320.298 41.5105C320.298 35.6671 323.707 31.5281 329.915 31.5281Z" fill="black"/>
<path d="M388.024 47.1104C391.432 39.3192 394.841 37.2497 398.736 37.2497C402.389 37.2497 405.189 38.7105 411.275 49.5451L412.127 49.4234L409.693 28.3629C407.258 26.5369 404.58 25.8065 402.267 25.8065C395.206 25.8065 391.189 30.189 387.293 39.441H386.806V27.1456H365.381V27.7543L375.12 34.6932V80.4662L365.381 87.4052V88.0139H398.98V87.4052L388.024 80.3445V47.1104Z" fill="black"/>
<path d="M446.817 88.0139H468.242V87.527L458.503 80.4662V43.9452C458.503 31.2846 453.391 25.8065 442.556 25.8065C438.782 25.8065 434.278 26.7804 430.748 29.2151L426.365 22.6413H425.878L418.939 45.4061L419.426 45.6495C429.043 34.9367 434.887 30.6759 439.513 30.6759C444.382 30.6759 445.599 34.2063 445.599 43.3365V52.4668C442.678 50.6407 438.173 49.4234 433.061 49.4234C419.669 49.4234 411.878 58.0667 411.878 70.2403C411.878 82.2923 419.304 89.8399 430.748 89.8399C437.686 89.8399 443.286 86.1879 446.33 80.4662H446.817V88.0139ZM445.599 77.3011C443.53 77.9098 440.486 78.275 437.808 78.275C426.852 78.275 421.252 72.9186 421.252 65.4926C421.252 58.5536 425.513 54.4146 431.6 54.4146C437.565 54.4146 442.312 57.9449 445.599 64.5187V77.3011Z" fill="black"/>
<path d="M492.746 86.6748C495.424 88.3791 500.537 89.8399 505.406 89.8399C520.38 89.8399 531.336 77.6663 531.336 56.971C531.336 39.9279 523.423 26.0499 509.667 26.0499C501.267 26.0499 495.546 31.0411 492.624 35.6671H492.137V27.1456H470.103V27.6325L479.842 34.6932V104.205L470.103 111.266V111.753H492.746V86.6748ZM492.746 38.8323C493.598 38.5888 496.276 38.2236 498.711 38.2236C512.345 38.2236 522.206 49.5451 522.206 65.2491C522.206 76.6924 516.728 82.5357 508.693 82.5357C501.632 82.5357 495.789 78.8836 492.746 74.1359V38.8323Z" fill="black"/>
<path d="M558.859 -0.00170898H536.216V0.485239L545.955 8.27639V80.4662L536.216 87.527V88.0139H568.598V87.527L558.859 80.4662V43.9452C561.294 36.5193 566.163 32.6237 570.302 32.6237C576.389 32.6237 578.094 37.2497 578.094 46.0147V88.0139H600.737V87.527L590.998 80.4662V43.2148C590.998 32.7455 585.519 25.8065 574.685 25.8065C568.598 25.8065 563.363 27.9977 558.859 32.502V-0.00170898Z" fill="black"/>
</g>
<defs>
<clipPath id="clip0">
<rect width="600" height="113.09" fill="white" transform="translate(0.736557)"/>
</clipPath>
</defs>
</svg>
