<svg width="626" height="320" viewBox="0 0 626 320" fill="none" xmlns="http://www.w3.org/2000/svg">
<g clip-path="url(#clip0)">
<path fill-rule="evenodd" clip-rule="evenodd" d="M356.053 2.58319C358.958 21.3128 345.37 41.0978 320.317 57.9256C308.374 65.9471 293.898 73.2427 277.535 79.372L278.792 79.9672C329.069 60.9215 361.449 30.8463 357.041 2.4299C351.041 -36.2507 279.149 -57.2101 196.467 -44.3843C113.785 -31.5585 51.6217 10.1957 57.6218 48.8762C58.1567 52.3239 59.2149 55.6308 60.7577 58.7855L61.6972 58.4242C60.173 55.3283 59.1324 52.0901 58.61 48.723C55.7047 29.9934 69.2931 10.2083 94.3461 -6.61945C119.325 -23.3977 155.391 -37.0005 196.62 -43.3961C237.85 -49.7917 276.341 -47.7543 305.23 -39.3321C334.203 -30.885 353.147 -16.1464 356.053 2.58319Z" fill="black"/>
<path fill-rule="evenodd" clip-rule="evenodd" d="M295.543 -7.59067L304.366 -8.95923L306.33 3.70531C307.813 1.67806 309.72 0.50788 312.092 0.139989C316.313 -0.514859 318.867 1.85771 319.5 5.93692L321.751 20.4513L325.973 22.6138L326.002 22.8035L317.18 24.1721L314.641 7.8078C314.111 4.39265 313.168 2.69321 310.796 3.06111C309.183 3.31127 307.522 5.12343 307.022 8.16398L309.229 22.3938L313.45 24.5563L313.48 24.746L300.863 26.7032L300.833 26.5135L304.201 23.1737L299.838 -4.95387L295.573 -7.40094L295.543 -7.59067ZM283.844 28.8088C284.991 29.311 287.071 29.5712 288.969 29.2768C294.803 28.3718 298.336 22.9663 297.085 14.9028C296.055 8.26221 292.133 3.33314 286.773 4.16457C283.5 4.67227 281.573 6.96282 280.714 8.94186L280.524 8.97128L280.009 5.651L271.424 6.98276L271.453 7.17249L275.675 9.33496L279.876 36.419L276.508 39.7588L276.538 39.9485L285.36 38.5799L283.844 28.8088ZM280.953 10.1677C281.27 10.0214 282.291 9.71721 283.24 9.57005C288.553 8.74598 293.079 12.5612 294.028 18.68C294.72 23.1387 292.938 25.7466 289.808 26.2322C287.057 26.659 284.559 25.5892 283.086 23.9232L280.953 10.1677ZM224.247 37.551C225.449 37.0302 226.632 36.5179 228.335 36.2538C232.082 35.6725 233.905 37.7212 234.244 39.9031C234.965 44.5515 229.776 47.7366 224.321 48.5827C220.574 49.164 216.239 49.3993 212.986 48.7866L212.022 42.5729L212.497 42.4994C216.475 45.9139 220.48 46.9927 224.274 46.4041C227.215 45.9479 228.834 44.4825 228.539 42.5852C228.23 40.593 226.606 39.825 224.281 40.1856C223.29 40.3394 222.436 40.6441 221.559 40.9571C220.632 41.2879 219.68 41.628 218.51 41.8094C215.379 42.2951 212.74 41.2473 211.559 39.5847L214.659 32.6434C212.088 31.0992 210.297 28.317 209.774 24.9493C208.913 19.3996 212.263 15.6256 217.433 14.8236C219.615 14.4852 221.505 14.7748 223.116 15.4479L228.217 6.69035L228.407 6.66092L229.849 15.9577L229.064 15.5938L226.442 14.3489L225.099 16.6461C227.305 18.3439 228.64 21.0027 229.074 23.8012C229.854 28.8291 226.966 33.0659 221.463 33.9195C219.993 34.1475 218.621 34.069 217.361 33.7786C216.582 35.0167 216.08 36.1632 216.249 37.2542C216.47 38.6772 217.678 39.2669 219.86 38.9284C221.741 38.6367 223.004 38.0893 224.247 37.551ZM226.503 25.0744C225.848 20.8529 220.862 16.5747 217.067 17.1633C214.648 17.5386 213.57 19.3573 213.923 21.6341C214.6 25.9979 219.795 30.0495 223.352 29.4977C225.771 29.1225 226.856 27.3512 226.503 25.0744ZM184.551 31.6772C184.17 29.2221 184.314 26.9387 184.983 24.8269C185.649 22.6996 186.78 20.9745 188.378 19.6515C189.973 18.3131 191.913 17.4667 194.198 17.1122C197.579 16.5876 200.489 17.2511 202.926 19.1024C205.38 20.9514 206.97 23.6615 207.698 27.2327L207.926 28.5493C208.309 31.0197 208.173 33.3019 207.517 35.3959C206.877 37.4875 205.752 39.2037 204.142 40.5445C202.547 41.883 200.591 42.7318 198.275 43.0911C194.739 43.6396 191.724 42.9056 189.229 40.8892C186.747 38.855 185.202 35.8769 184.594 31.9551L184.551 31.6772ZM190.254 31.2905C190.654 33.869 191.501 35.8091 192.794 37.1107C194.084 38.3968 195.679 38.8925 197.578 38.5979C199.477 38.3033 200.837 37.3335 201.657 35.6883C202.492 34.0408 202.689 31.7888 202.246 28.9323C201.853 26.4001 200.993 24.4779 199.667 23.1657C198.356 21.8511 196.767 21.3387 194.899 21.6285C193.061 21.9135 191.716 22.8733 190.862 24.5077C190.007 26.1268 189.804 28.3877 190.254 31.2905ZM112.173 47.6561L117.814 20.5649L125.387 19.3901L129.583 46.4385L125.812 46.625L123.658 46.7711L123.057 42.9001L121.33 27.9412L117.181 47.2102L114.75 47.375L112.173 47.6561ZM111.983 47.6768L98.3822 23.5792L90.7855 24.7576L94.7076 50.0418L100.543 49.13L100.128 46.4569L97.2465 31.7008L106.726 48.2797L107.875 48.125L111.983 47.6768ZM167.608 46.9181L164.911 29.5296C165.704 27.3036 167.235 26.0145 169.505 25.6624C171.064 25.4205 172.244 25.6329 173.043 26.2995C173.855 26.9483 174.384 28.0679 174.631 29.6583L177.15 45.8938L182.778 45.0207L180.209 28.461C179.189 22.4999 176.07 19.9242 170.851 20.7338C167.84 21.2008 165.582 22.6975 164.077 25.2237L163.465 22.3538L158.162 23.1765L161.782 46.5164L164.75 46.625L167.608 46.9181ZM154.673 46.2563C155.24 45.3946 155.685 44.4379 156.007 43.3864C156.662 41.2924 156.798 39.0102 156.415 36.5397L156.187 35.2232C155.459 31.6519 153.869 28.9418 151.416 27.0928C148.978 25.2415 146.069 24.5781 142.687 25.1026C140.402 25.4571 138.462 26.3036 136.867 27.642C135.27 28.965 134.138 30.6901 133.472 32.8173C132.803 34.9292 132.659 37.2126 133.04 39.6676L133.083 39.9455C133.461 42.379 134.199 44.4492 135.298 46.1559L137.187 46.0625H142.558C142.104 45.8166 141.679 45.4961 141.283 45.1011C139.99 43.7995 139.144 41.8595 138.744 39.2809C138.293 36.3782 138.496 34.1172 139.352 32.4982C140.205 30.8637 141.55 29.9039 143.388 29.6189C145.256 29.3291 146.846 29.8415 148.156 31.1561C149.482 32.4683 150.342 34.3906 150.735 36.9228C151.178 39.7792 150.982 42.0312 150.146 43.6788C149.602 44.771 148.82 45.5655 147.8 46.0625H149.375L154.673 46.2563ZM240.65 19.7226C241.507 16.4809 242.71 15.4685 244.228 15.2331C245.651 15.0124 246.83 15.4123 249.857 19.2659L250.181 19.167L247.96 11.1083C246.901 10.544 245.813 10.4212 244.912 10.561C242.161 10.9878 240.86 12.9382 239.902 16.7785L239.712 16.808L238.969 12.0172L230.621 13.3122L230.657 13.5494L234.871 15.6644L237.638 33.4991L234.263 36.7914L234.3 37.0286L247.391 34.9978L247.354 34.7607L242.658 32.6718L240.65 19.7226ZM274.378 30.8116L266.03 32.1065L265.574 29.1657L265.384 29.1951C264.544 31.6084 262.583 33.3699 259.879 33.7893C255.42 34.4809 252.071 31.9889 251.342 27.2931C250.607 22.5498 253.12 18.7112 258.337 17.9018C260.33 17.5928 262.158 17.7949 263.407 18.3298L262.855 14.7723C262.303 11.2149 261.616 9.91289 259.718 10.2072C257.916 10.4868 255.897 12.5001 252.797 17.2555L252.592 17.19L253.92 7.90072L254.11 7.87129L256.215 10.1678C257.443 9.00574 259.139 8.35404 260.61 8.12594C264.831 7.4711 267.155 9.29654 267.92 14.2295L270.127 28.4594L274.349 30.6218L274.378 30.8116ZM261.931 28.8564C262.975 28.6945 264.138 28.3683 264.908 28.006L264.135 23.0256C262.457 20.6629 260.394 19.5743 258.07 19.9348C255.698 20.3027 254.288 22.173 254.708 24.8766C255.157 27.77 257.662 29.5186 261.931 28.8564Z" fill="black"/>
<path fill-rule="evenodd" clip-rule="evenodd" d="M128.459 325.804C158.382 321.873 179.352 310.195 185.079 292.127C190.806 274.059 180.393 252.434 158.198 231.983C136.069 211.593 102.5 192.65 62.7269 180.043C22.9543 167.436 -15.3976 163.581 -45.2324 167.501C-75.1552 171.431 -96.1247 183.109 -101.852 201.177C-107.579 219.245 -97.1657 240.87 -74.9712 261.321C-52.8421 281.712 -19.2725 300.654 20.5001 313.261C60.2727 325.868 98.6247 329.723 128.459 325.804ZM20.1979 314.214C99.9581 339.496 174.205 329.743 186.032 292.429C197.859 255.116 142.789 204.372 63.0291 179.09C-16.731 153.808 -90.9775 163.561 -102.805 200.875C-114.632 238.188 -59.5622 288.932 20.1979 314.214Z" fill="black"/>
<path d="M-55.0472 196.344L-53.567 224.252L-36.3023 202.285L-28.9965 204.601L-39.3077 237.131L-44.9379 235.346L-41.5386 224.622L-36.4335 210.456L-53.9864 232.478L-58.0303 231.196L-59.6762 203.113L-63.6571 217.611L-67.0564 228.335L-72.6866 226.551L-62.3754 194.021L-55.0472 196.344Z" fill="black"/>
<path d="M-31.1597 226.166C-30.409 223.798 -29.2647 221.817 -27.7268 220.223C-26.1841 218.614 -24.4032 217.572 -22.3842 217.097C-20.3604 216.608 -18.2463 216.712 -16.0419 217.411C-12.78 218.445 -10.4691 220.333 -9.10908 223.075C-7.73421 225.822 -7.51488 228.957 -8.45109 232.479L-8.83241 233.76C-9.58781 236.143 -10.7247 238.127 -12.243 239.711C-13.7465 241.299 -15.5175 242.336 -17.5562 242.821C-19.5799 243.31 -21.7089 243.201 -23.9431 242.493C-27.354 241.412 -29.7283 239.413 -31.0662 236.498C-32.3844 233.572 -32.4439 230.218 -31.2447 226.434L-31.1597 226.166ZM-25.8793 228.356C-26.6678 230.844 -26.7724 232.958 -26.1932 234.699C-25.6093 236.425 -24.4013 237.578 -22.5692 238.159C-20.7372 238.739 -19.0881 238.475 -17.622 237.366C-16.1411 236.262 -14.9639 234.332 -14.0904 231.577C-13.3162 229.134 -13.2312 227.03 -13.8354 225.265C-14.4248 223.505 -15.6206 222.339 -17.4229 221.768C-19.1954 221.206 -20.8272 221.467 -22.3183 222.552C-23.8047 223.621 -24.9917 225.556 -25.8793 228.356Z" fill="black"/>
<path d="M3.79104 224.189L3.0622 227.032C5.53414 225.438 8.22234 225.102 11.1268 226.023C16.1612 227.619 17.8095 231.313 16.0717 237.105L11.0082 253.08L5.57911 251.359L10.5435 235.697C11.0298 234.163 11.0535 232.925 10.6146 231.983C10.1953 231.03 9.23343 230.315 7.72907 229.839C5.53955 229.145 3.59463 229.618 1.89429 231.259L-3.55875 248.462L-8.98785 246.742L-1.32527 222.568L3.79104 224.189Z" fill="black"/>
<path d="M18.5306 241.917C19.2813 239.549 20.4256 237.567 21.9636 235.973C23.5063 234.364 25.2871 233.322 27.3061 232.848C29.3299 232.358 31.444 232.463 33.6484 233.162C36.9103 234.196 39.2213 236.084 40.5812 238.826C41.9561 241.573 42.1754 244.708 41.2392 248.23L40.8579 249.511C40.1025 251.894 38.9656 253.877 37.4473 255.461C35.9438 257.05 34.1728 258.087 32.1341 258.572C30.1104 259.061 27.9814 258.952 25.7472 258.243C22.3363 257.162 19.962 255.164 18.6242 252.248C17.3059 249.323 17.2464 245.968 18.4456 242.185L18.5306 241.917ZM23.811 244.107C23.0225 246.594 22.9179 248.709 23.4971 250.449C24.0811 252.175 25.2891 253.328 27.1211 253.909C28.9531 254.49 30.6022 254.226 32.0683 253.117C33.5492 252.013 34.7264 250.083 35.5999 247.328C36.3742 244.885 36.4592 242.781 35.8549 241.016C35.2655 239.255 34.0697 238.09 32.2674 237.518C30.495 236.956 28.8632 237.218 27.372 238.302C25.8856 239.372 24.6986 241.307 23.811 244.107Z" fill="black"/>
<path d="M55.7111 265.487C52.3709 264.428 50.5006 265.246 46.9316 264.114C44.8268 263.447 44.0065 262.381 44.4416 261.009C44.7752 259.956 45.7348 259.153 46.9835 258.39C47.9824 259.211 49.1766 259.891 50.595 260.341C55.9028 262.023 60.3743 259.513 61.9116 254.663C62.7674 251.963 62.7537 248.988 61.5326 246.486L63.7577 245.026L65.5524 247.307L66.0937 247.982L68.9365 239.014L68.7534 238.956L60.2892 244.531C59.1464 243.212 57.5817 242.112 55.4769 241.445C50.4894 239.864 45.8114 241.755 44.1145 247.108C43.0847 250.357 43.4522 253.646 45.0683 256.172L39.2043 261.01C39.5225 263.025 41.421 265.137 44.4409 266.094C46.6372 266.79 48.3647 266.583 50.3323 267.206C52.5743 267.917 53.6882 269.327 53.079 271.249C52.4989 273.079 50.3975 273.672 47.5607 272.773C43.9001 271.613 40.793 268.865 38.7481 264.038L38.2906 263.893L36.3906 269.887C39.0312 271.882 43.0187 273.599 46.6335 274.745C51.8954 276.413 57.9596 275.868 59.381 271.384C60.0481 269.279 59.3259 266.633 55.7111 265.487ZM54.1088 243.378C57.7694 244.538 60.3333 250.587 59.0425 254.66C58.3463 256.856 56.5865 257.96 54.2529 257.22C50.8212 256.132 47.9705 250.193 49.3048 245.984C50.001 243.788 51.7753 242.638 54.1088 243.378Z" fill="black"/>
<path d="M74.0932 256.157C76.3026 253.635 77.8303 253.263 79.2945 253.727C80.6672 254.163 81.5456 255.045 82.5426 259.843L82.8774 259.899L84.4714 251.693C83.7738 250.716 82.8542 250.123 81.9848 249.847C79.3309 249.006 77.2988 250.174 74.7324 253.188L74.5494 253.13L76.0142 248.508L67.9611 245.956L67.8886 246.184L70.7224 249.953L65.269 267.157L60.7818 268.605L60.7093 268.834L73.338 272.837L73.4105 272.608L70.1337 268.649L74.0932 256.157Z" fill="black"/>
<path d="M91.3181 278.536L99.3712 281.089L99.4293 280.906L96.61 277.092L100.961 263.365C102.469 258.606 101.2 255.938 97.128 254.647C95.7096 254.197 93.9006 254.027 92.2836 254.521L91.4195 251.528L91.2365 251.47L85.9162 259.2L86.0702 259.35C90.9613 256.469 93.6652 255.564 95.404 256.115C97.2342 256.695 97.2712 258.167 96.1834 261.599L95.0956 265.03C94.215 263.996 92.6671 263.002 90.7453 262.392C85.7121 260.797 81.7539 263.118 80.3036 267.693C78.8677 272.223 80.7596 275.945 85.0607 277.308C87.6688 278.135 90.2087 277.429 92.0343 275.641L92.2173 275.699L91.3181 278.536ZM92.1369 274.365C91.2865 274.347 90.0991 274.121 89.0924 273.802C84.9744 272.497 83.5077 269.817 84.3925 267.025C85.2192 264.417 87.3138 263.369 89.6016 264.094C91.8437 264.805 93.2075 266.698 93.6598 269.56L92.1369 274.365Z" fill="black"/>
<path d="M108.741 283.505C109.544 284.464 111.292 285.623 113.122 286.203C118.75 287.987 124.319 284.716 126.784 276.938C128.815 270.532 127.494 264.373 122.324 262.734C119.166 261.733 116.421 262.928 114.772 264.318L114.589 264.26L115.604 261.057L107.322 258.432L107.264 258.615L110.084 262.429L101.802 288.556L97.3003 290.05L97.2422 290.233L105.753 292.931L108.741 283.505ZM114.441 265.523C114.79 265.533 115.84 265.714 116.755 266.004C121.88 267.629 124.237 273.059 122.366 278.962C121.003 283.263 118.248 284.806 115.228 283.849C112.574 283.008 110.813 280.939 110.235 278.792L114.441 265.523Z" fill="black"/>
<path d="M143.917 258.803L135.406 256.105L135.348 256.288L138.08 260.377L129.48 287.511L124.978 289.004L124.92 289.187L137.091 293.045L137.149 292.862L134.33 289.048L138.681 275.321C140.481 272.82 142.775 271.936 144.331 272.429C146.619 273.154 146.708 275.096 145.664 278.39L140.66 294.176L149.171 296.874L149.229 296.691L146.41 292.877L150.848 278.875C152.095 274.94 150.863 271.68 146.79 270.389C144.503 269.664 142.274 269.864 140.044 271.02L143.917 258.803Z" fill="black"/>
<path fill-rule="evenodd" clip-rule="evenodd" d="M464.182 164.628C464.133 164.985 464.078 165.341 464.018 165.696C470.615 169.655 475.6 174.799 478.651 181.103C486.906 198.165 479.697 221.059 460.659 244.476C441.678 267.826 411.166 291.379 373.609 309.551C336.051 327.723 298.646 337.03 268.558 337.423C238.38 337.817 215.955 329.262 207.7 312.201C199.445 295.139 206.654 272.246 225.691 248.828C232.351 240.636 240.429 232.419 249.733 224.418C249.325 224.33 248.918 224.241 248.511 224.152C212.909 254.966 195.345 288.963 206.8 312.636C223.848 347.872 298.726 346.894 374.044 310.452C449.362 274.009 496.599 215.903 479.551 180.668C476.345 174.043 471.095 168.698 464.182 164.628Z" fill="black"/>
<path fill-rule="evenodd" clip-rule="evenodd" d="M356.305 227.937L355.286 232.278C353.549 232.105 351.656 232.381 349.668 233.342C344.959 235.621 342.86 240.209 345.306 245.265C346.79 248.332 349.317 250.469 352.227 251.194L351.292 258.739C352.907 259.983 355.738 260.213 358.59 258.834C359.655 258.318 360.467 257.714 361.256 257.127C362.003 256.571 362.73 256.03 363.634 255.593C365.751 254.569 367.529 254.828 368.408 256.643C369.244 258.371 368.124 260.246 365.446 261.542C361.989 263.214 357.844 263.354 353.041 261.252L352.609 261.461L355.347 267.121C358.637 266.756 362.714 265.263 366.127 263.612C371.096 261.208 375.127 256.644 373.078 252.41C372.117 250.422 369.774 248.996 366.36 250.648C364.809 251.398 363.828 252.234 362.831 253.084C361.8 253.962 360.751 254.855 359.038 255.684C357.051 256.645 355.723 256.435 355.095 255.139C354.615 254.145 354.76 252.902 355.143 251.49C356.432 251.399 357.767 251.073 359.107 250.425C364.119 248 365.643 243.103 363.427 238.523C362.193 235.974 360.139 233.822 357.532 232.843L358.146 230.254L361.017 230.678L361.874 230.796L360.214 227.366C358.919 227.564 357.616 227.755 356.305 227.937ZM364.748 226.633L361.838 228.041L361.943 228.257L366.591 229.047L374.452 245.293L372.186 249.429L372.291 249.645L384.216 243.875L384.112 243.659L379.011 243.034L373.303 231.238C373.175 227.888 374.03 226.568 375.412 225.899C376.709 225.272 377.953 225.309 381.974 228.109L382.256 227.92L379.567 223.685C377.028 224.267 374.449 224.816 371.833 225.332C371.685 226.274 371.661 227.369 371.727 228.642L371.554 228.725L370.077 225.673C368.317 226.008 366.54 226.328 364.748 226.633ZM383.579 222.73L383.984 225.324L384.198 225.327C384.52 224.212 384.832 223.22 385.139 222.34C384.621 222.471 384.101 222.601 383.579 222.73ZM393.159 220.153L394.659 223.252C393.308 223.106 391.5 223.447 389.686 224.325C384.933 226.625 383.652 231.03 385.742 235.351C387.812 239.629 391.744 241.033 395.805 239.067C398.268 237.876 399.629 235.618 399.726 233.064L399.899 232.981L401.195 235.66L408.8 231.98L408.716 231.807L404.047 230.974L398.084 218.65C396.465 219.166 394.823 219.667 393.159 220.153ZM406.107 215.915L415.697 235.735L413.453 239.914L413.537 240.086L421.574 236.198L417.267 227.297C418.51 227.442 420.576 227.082 422.304 226.246C427.619 223.675 429.417 217.472 425.863 210.127C425.486 209.348 425.071 208.61 424.625 207.92C423.223 208.634 421.79 209.335 420.328 210.022C421.809 211.117 423.096 212.674 424.044 214.633C426.009 218.695 425.068 221.709 422.216 223.089C419.71 224.302 417.009 224.009 415.114 222.847L410.881 214.099C409.317 214.719 407.725 215.324 406.107 215.915ZM429.843 205.118L435.086 215.956L432.842 220.134L432.926 220.307L444.419 214.746L444.336 214.573L439.666 213.74L434.234 202.511C432.813 203.396 431.349 204.266 429.843 205.118ZM440.589 198.233L447.79 213.115L455.826 209.227L455.743 209.054L451.073 208.221L444.703 195.054C443.389 196.132 442.017 197.192 440.589 198.233ZM396.325 233.75C397.276 233.29 398.293 232.638 398.923 232.066L396.728 227.53C394.433 225.761 392.141 225.323 390.024 226.347C387.864 227.393 387.062 229.594 388.254 232.056C389.529 234.692 392.437 235.632 396.325 233.75ZM361.34 240.493C359.479 236.647 353.46 234.014 350.003 235.687C347.799 236.753 347.3 238.807 348.304 240.881C350.227 244.856 356.379 247.212 359.62 245.644C361.824 244.578 362.343 242.567 361.34 240.493ZM323.152 259.074C322.07 256.838 321.54 254.612 321.562 252.397C321.577 250.168 322.155 248.187 323.295 246.455C324.429 244.709 326.037 243.332 328.118 242.325C331.199 240.834 334.175 240.618 337.047 241.676C339.934 242.727 342.247 244.853 343.988 248.055L344.591 249.248C345.679 251.498 346.217 253.721 346.202 255.915C346.202 258.102 345.627 260.072 344.479 261.825C343.346 263.572 341.724 264.955 339.614 265.976C336.393 267.534 333.295 267.714 330.319 266.515C327.351 265.296 325.003 262.9 323.274 259.327L323.152 259.074ZM328.493 257.037C329.63 259.385 331.006 260.993 332.623 261.86C334.233 262.712 335.904 262.72 337.634 261.883C339.364 261.046 340.38 259.721 340.683 257.908C341 256.088 340.53 253.877 339.271 251.275C338.155 248.968 336.771 247.382 335.119 246.514C333.481 245.641 331.811 245.615 330.109 246.439C328.435 247.249 327.429 248.56 327.091 250.372C326.746 252.171 327.214 254.392 328.493 257.037ZM301.685 258.889L300.262 256.324L295.43 258.661L306.475 281.489L311.602 279.009L303.742 262.763C303.85 260.403 304.937 258.722 307.005 257.722C308.425 257.034 309.615 256.893 310.574 257.296C311.541 257.679 312.374 258.595 313.075 260.044L320.231 274.833L325.358 272.353L318.059 257.268C315.341 251.866 311.605 250.315 306.851 252.615C304.108 253.942 302.386 256.033 301.685 258.889ZM276.229 281.777C275.147 279.541 274.617 277.315 274.639 275.1C274.654 272.871 275.231 270.891 276.372 269.158C277.506 267.412 279.114 266.035 281.195 265.028C284.276 263.538 287.252 263.321 290.124 264.379C293.011 265.43 295.324 267.556 297.065 270.759L297.668 271.951C298.756 274.202 299.294 276.424 299.279 278.618C299.279 280.805 298.704 282.776 297.556 284.529C296.423 286.275 294.801 287.659 292.691 288.679C289.47 290.238 286.372 290.418 283.396 289.219C280.428 287.999 278.08 285.603 276.351 282.03L276.229 281.777ZM281.57 279.74C282.707 282.089 284.083 283.696 285.7 284.563C287.31 285.416 288.981 285.423 290.711 284.586C292.441 283.749 293.457 282.424 293.76 280.611C294.077 278.791 293.607 276.58 292.348 273.978C291.232 271.672 289.848 270.085 288.196 269.218C286.558 268.344 284.888 268.319 283.186 269.142C281.512 269.952 280.506 271.263 280.168 273.076C279.823 274.874 280.291 277.096 281.57 279.74ZM238.381 276.526L258.634 295.784L256.082 267.962L262.981 264.624L277.844 295.342L272.527 297.914L267.628 287.788L261.602 273.988L263.983 302.049L260.164 303.896L239.67 284.625L246.741 297.893L251.641 308.02L246.324 310.593L231.461 279.874L238.381 276.526Z" fill="black"/>
<path fill-rule="evenodd" clip-rule="evenodd" d="M624.19 80.8528C625.943 99.7252 611.169 118.641 585.132 133.903C559.173 149.121 522.342 160.49 480.798 164.349C473.534 165.024 466.37 165.447 459.341 165.63C459.284 165.966 459.223 166.301 459.156 166.635C466.276 166.454 473.533 166.028 480.891 165.345C564.203 157.606 628.806 119.736 625.185 80.7603C621.565 41.785 551.092 16.4633 467.779 24.2027C398.252 30.6616 341.755 58.1048 327.066 89.6628C327.426 89.6835 327.785 89.7049 328.144 89.7269C333.974 77.4787 346.282 65.7591 363.538 55.6443C389.497 40.4268 426.328 29.0577 467.872 25.1984C509.416 21.3391 547.71 25.7294 576.029 35.9046C604.431 46.1097 622.437 61.9805 624.19 80.8528Z" fill="black"/>
<path fill-rule="evenodd" clip-rule="evenodd" d="M565.105 66.9934L573.995 66.1676L575.18 78.9287C576.784 76.996 578.759 75.9448 581.149 75.7228C585.403 75.3276 587.807 77.8521 588.188 81.9624L589.547 96.5874L593.628 99.0043L593.646 99.1955L584.756 100.021L583.224 83.5323C582.905 80.0911 582.067 78.3371 579.677 78.5591C578.052 78.7101 576.282 80.4171 575.597 83.4213L576.929 97.7596L581.01 100.176L581.028 100.368L568.315 101.549L568.297 101.357L571.863 98.2302L569.23 69.8882L565.123 67.1846L565.105 66.9934ZM491.179 107.685C492.411 107.239 493.622 106.8 495.338 106.641C499.114 106.29 500.808 108.446 501.013 110.645C501.448 115.329 496.073 118.19 490.577 118.701C486.801 119.052 482.46 119.021 479.251 118.21L478.67 111.949L479.147 111.905C482.909 115.557 486.84 116.879 490.664 116.523C493.627 116.248 495.332 114.885 495.155 112.973C494.968 110.965 493.394 110.099 491.052 110.317C490.052 110.41 489.182 110.662 488.287 110.92C487.342 111.194 486.37 111.475 485.192 111.584C482.037 111.877 479.467 110.67 478.39 108.938L481.91 102.2C479.438 100.501 477.82 97.6144 477.505 94.221C476.985 88.6291 480.559 85.0673 485.769 84.5833C487.967 84.3791 489.837 84.7839 491.403 85.5543L497.031 77.1256L497.222 77.1078L498.092 86.4755L497.331 86.0641L494.791 84.6611L493.309 86.8717C495.407 88.7015 496.577 91.437 496.839 94.2568C497.31 99.323 494.167 103.375 488.623 103.89C487.141 104.028 485.776 103.865 484.537 103.498C483.683 104.686 483.112 105.8 483.214 106.899C483.347 108.333 484.517 108.996 486.716 108.791C488.611 108.615 489.905 108.146 491.179 107.685ZM494.195 95.3702C493.799 91.1165 489.084 86.5411 485.26 86.8962C482.823 87.1227 481.636 88.872 481.849 91.1661C482.257 95.5632 487.194 99.9253 490.778 99.5923C493.216 99.3658 494.408 97.6643 494.195 95.3702ZM382.237 97.9417C383.83 98.3539 385.405 98.7791 386.961 99.217L389.043 91.7923L389.481 99.9416C391.455 100.522 393.399 101.123 395.311 101.744L393.616 83.5056L385.985 84.2146L382.237 97.9417ZM364.781 94.0837L364.775 94.0703L364.776 94.0828C362.982 93.7502 361.171 93.4333 359.344 93.1323L358.751 86.7445L366.405 86.0334L370.908 95.2933C368.889 94.8698 366.846 94.4664 364.781 94.0837ZM421.059 112.302C421.744 111.43 422.294 110.44 422.709 109.332C423.492 107.282 423.767 105.012 423.536 102.523L423.389 101.195C422.881 97.5856 421.46 94.7832 419.124 92.7876C416.805 90.7904 413.941 89.9501 410.534 90.2666C408.231 90.4806 406.243 91.2066 404.569 92.4449C402.894 93.6676 401.659 95.3202 400.864 97.4027C400.165 99.2162 399.861 101.186 399.952 103.313C401.977 104.025 403.962 104.761 405.907 105.518C405.832 105.091 405.773 104.644 405.73 104.177C405.458 101.252 405.799 99.0077 406.752 97.4441C407.704 95.8649 409.105 94.9894 410.957 94.8174C412.839 94.6425 414.394 95.2512 415.622 96.6436C416.866 98.0346 417.606 100.006 417.843 102.557C418.11 105.436 417.776 107.671 416.842 109.265C416.691 109.525 416.528 109.766 416.351 109.989C417.957 110.743 419.526 111.514 421.059 112.302ZM431.876 91.6971L431.442 88.7952L426.097 89.2916L428.443 114.542L434.114 114.015L432.445 96.046C433.373 93.8727 434.98 92.6798 437.267 92.4674C438.838 92.3214 440.003 92.6056 440.759 93.3199C441.53 94.0172 441.99 95.1671 442.139 96.7695L443.659 113.129L449.33 112.602L447.78 95.916C447.127 89.9037 444.171 87.1418 438.913 87.6304C435.879 87.9122 433.533 89.2678 431.876 91.6971ZM451.917 99.392C451.687 96.9183 451.97 94.6479 452.767 92.581C453.562 90.4985 454.797 88.846 456.473 87.6232C458.147 86.385 460.135 85.6589 462.437 85.445C465.845 85.1285 468.708 85.9688 471.028 87.9659C473.363 89.9616 474.784 92.764 475.292 96.3731L475.439 97.7011C475.671 100.19 475.395 102.46 474.612 104.51C473.845 106.558 472.617 108.202 470.928 109.442C469.254 110.68 467.25 111.408 464.916 111.625C461.354 111.956 458.389 111.039 456.022 108.873C453.67 106.691 452.31 103.624 451.943 99.672L451.917 99.392ZM457.633 99.3553C457.874 101.953 458.601 103.942 459.811 105.32C461.021 106.683 462.582 107.275 464.496 107.097C466.41 106.92 467.826 106.035 468.745 104.443C469.68 102.85 470.014 100.614 469.746 97.7357C469.509 95.1842 468.769 93.2129 467.526 91.822C466.298 90.4296 464.743 89.8208 462.86 89.9957C461.009 90.1677 459.607 91.0433 458.655 92.6225C457.702 94.1861 457.361 96.4304 457.633 99.3553ZM508.642 90.8946C509.696 87.7115 510.959 86.7746 512.488 86.6326C513.922 86.4994 515.075 86.9708 517.86 91.0025L518.19 90.9236L516.466 82.744C515.443 82.1159 514.365 81.9268 513.457 82.0111C510.685 82.2687 509.268 84.1358 508.076 87.9102L507.885 87.928L507.436 83.1008L499.024 83.8822L499.047 84.1211L503.123 86.4902L504.793 104.461L501.222 107.54L501.244 107.779L514.436 106.554L514.413 106.315L509.854 103.942L508.642 90.8946ZM541.628 104.028L533.216 104.809L532.941 101.846L532.75 101.864C531.764 104.221 529.698 105.859 526.974 106.112C522.482 106.53 519.291 103.837 518.851 99.1055C518.407 94.3261 521.151 90.6485 526.408 90.1601C528.416 89.9737 530.228 90.2873 531.442 90.8977L531.109 87.3131C530.776 83.7285 530.169 82.3869 528.258 82.5645C526.441 82.7332 524.303 84.6191 520.918 89.1758L520.718 89.098L522.612 79.9074L522.803 79.8896L524.763 82.3106C526.06 81.226 527.793 80.6794 529.275 80.5417C533.528 80.1466 535.736 82.1108 536.197 87.0814L537.529 101.42L541.61 103.837L541.628 104.028ZM529.324 101.314C530.376 101.217 531.557 100.962 532.348 100.648L531.882 95.6293C530.351 93.1683 528.359 91.9554 526.017 92.173C523.627 92.395 522.105 94.1754 522.358 96.8996C522.629 99.8151 525.023 101.714 529.324 101.314ZM551.199 102.608C552.313 103.18 554.374 103.567 556.285 103.389C562.164 102.843 566.022 97.6641 565.267 89.5391C564.645 82.8479 561.032 77.688 555.632 78.1897C552.334 78.496 550.27 80.6643 549.291 82.587L549.1 82.6048L548.789 79.2592L540.139 80.0628L540.156 80.254L544.237 82.6708L546.773 109.961L543.207 113.089L543.224 113.28L552.114 112.454L551.199 102.608ZM549.455 83.8252C549.78 83.6986 550.818 83.4575 551.774 83.3687C557.127 82.8714 561.411 86.9566 561.984 93.1221C562.402 97.6148 560.464 100.109 557.31 100.402C554.537 100.659 552.11 99.4385 550.742 97.6855L549.455 83.8252Z" fill="black"/>
<path fill-rule="evenodd" clip-rule="evenodd" d="M290.696 89.8877C284.342 84.0461 276.395 78.5544 267.086 73.5622C240.568 59.3409 203.332 49.3776 161.672 47.0976C120.011 44.8177 81.9111 50.658 53.999 61.9005C26.0046 73.1761 8.61397 89.7188 7.57824 108.644C6.54251 127.569 22.0241 145.911 48.6207 160.174C75.1392 174.396 112.375 184.359 154.035 186.639C160.446 186.99 166.773 187.148 172.991 187.124C173.286 187.457 173.586 187.789 173.892 188.12C167.365 188.163 160.719 188.006 153.98 187.637C70.4342 183.065 4.44073 147.674 6.57974 108.589C8.71874 69.5047 78.1803 41.5269 161.726 46.0991C218.658 49.2149 267.439 66.6417 292.064 89.7962C291.608 89.8258 291.152 89.8563 290.696 89.8877Z" fill="black"/>
<path fill-rule="evenodd" clip-rule="evenodd" d="M207.331 109.211L207.3 109.158L207.108 109.147L207.036 109.346C207.134 109.301 207.233 109.256 207.331 109.211ZM200.696 112.428L200.613 111.051C199.694 110.28 198.655 109.935 197.744 109.885C194.964 109.733 193.288 111.371 191.555 114.93L191.364 114.92L191.629 110.079L183.193 109.617L183.18 109.857L186.865 112.799L186.413 121.046C188.196 119.781 190.063 118.544 192.011 117.337C193.394 114.866 194.688 114.236 196.108 114.314C196.391 114.329 196.66 114.367 196.926 114.45C198.156 113.765 199.413 113.091 200.696 112.428ZM174.113 131.643C173.342 131.726 172.644 131.868 171.939 132.011C170.612 132.28 169.262 132.554 167.362 132.45C165.157 132.33 164.097 131.502 164.176 130.064C164.236 128.962 164.965 127.944 165.984 126.895C167.156 127.439 168.482 127.8 169.968 127.882C175.527 128.186 179.231 124.639 179.509 119.559C179.663 116.731 178.908 113.853 177.101 111.735L178.891 109.766L181.198 111.527L181.891 112.046L182.405 102.652L182.213 102.641L175.409 110.153C173.973 109.161 172.183 108.486 169.978 108.365C164.754 108.079 160.696 111.078 160.389 116.686C160.203 120.088 161.38 123.181 163.575 125.224L159.105 131.373C159.916 133.244 162.281 134.816 165.444 134.989C166.626 135.054 167.629 134.918 168.604 134.787C169.527 134.662 170.425 134.541 171.427 134.596C171.458 134.597 171.488 134.599 171.519 134.601C172.337 133.604 173.202 132.618 174.113 131.643ZM167.463 140.246C164.593 139.459 161.857 137.607 159.419 134.419L158.939 134.393L158.596 140.671C160.715 141.554 163.429 142.146 166.156 142.495C166.566 141.74 167.002 140.991 167.463 140.246ZM51.6947 92.2804L60.0944 118.936L71.3294 93.355L78.982 93.7738L77.1172 127.848L71.2198 127.525L71.8346 116.292L73.2419 101.299L61.7418 127.006L57.506 126.775L48.902 99.9909L48.6661 115.024L48.0514 126.257L42.1539 125.934L44.0187 91.8604L51.6947 92.2804ZM82.2703 115.196C82.4061 112.716 83.0196 110.512 84.111 108.584C85.2032 106.641 86.6676 105.187 88.5043 104.224C90.3418 103.245 92.415 102.818 94.7241 102.945C98.1408 103.132 100.85 104.383 102.851 106.699C104.868 109.016 105.863 111.997 105.836 115.641L105.786 116.976C105.65 119.473 105.044 121.677 103.969 123.59C102.91 125.504 101.454 126.95 99.6005 127.928C97.763 128.907 95.6741 129.333 93.3339 129.205C89.7611 129.009 86.9631 127.667 84.9398 125.178C82.9331 122.674 82.0381 119.44 82.255 115.477L82.2703 115.196ZM87.9302 115.999C87.7877 118.605 88.2141 120.678 89.2095 122.219C90.2057 123.744 91.6633 124.56 93.5823 124.665C95.5013 124.77 97.0323 124.102 98.1752 122.663C99.3337 121.224 99.9919 119.061 100.15 116.175C100.29 113.616 99.847 111.558 98.8213 109.999C97.8111 108.442 96.3621 107.611 94.4743 107.508C92.6177 107.406 91.1028 108.067 89.9296 109.489C88.7572 110.896 88.0908 113.066 87.9302 115.999ZM115.625 107.492L115.621 104.558L110.262 104.264L108.876 129.586L114.563 129.897L115.549 111.877C116.786 109.864 118.551 108.92 120.845 109.045C122.421 109.131 123.53 109.583 124.174 110.401C124.834 111.204 125.12 112.409 125.033 114.016L124.135 130.421L129.821 130.732L130.737 113.999C130.974 107.956 128.456 104.791 123.182 104.502C120.14 104.336 117.621 105.332 115.625 107.492ZM134.319 118.045C134.455 115.564 135.069 113.36 136.16 111.433C137.252 109.489 138.717 108.036 140.553 107.072C142.391 106.093 144.464 105.667 146.773 105.793C150.19 105.98 152.899 107.232 154.9 109.548C156.917 111.864 157.912 114.845 157.885 118.49L157.835 119.825C157.699 122.321 157.093 124.526 156.018 126.439C154.959 128.352 153.503 129.798 151.649 130.777C149.812 131.756 147.723 132.181 145.383 132.053C141.81 131.858 139.012 130.515 136.989 128.026C134.982 125.522 134.087 122.289 134.304 118.326L134.319 118.045ZM139.979 118.848C139.837 121.453 140.263 123.526 141.258 125.067C142.255 126.593 143.712 127.408 145.631 127.513C147.55 127.618 149.081 126.951 150.224 125.511C151.383 124.072 152.041 121.91 152.199 119.023C152.339 116.465 151.896 114.406 150.87 112.848C149.86 111.29 148.411 110.46 146.523 110.357C144.667 110.255 143.152 110.915 141.979 112.338C140.806 113.745 140.14 115.915 139.979 118.848ZM176.73 120.272C176.963 116.006 172.97 110.788 169.136 110.578C166.692 110.445 165.26 112.001 165.135 114.301C164.893 118.711 169.136 123.75 172.731 123.947C175.175 124.081 176.604 122.572 176.73 120.272Z" fill="black"/>
<path fill-rule="evenodd" clip-rule="evenodd" d="M313 230.875C396.671 230.875 464.5 199.143 464.5 160C464.5 120.857 396.671 89.125 313 89.125C229.329 89.125 161.5 120.857 161.5 160C161.5 199.143 229.329 230.875 313 230.875ZM405.265 140.671H414.193V153.487C415.969 151.711 418.033 150.847 420.433 150.847C424.705 150.847 426.865 153.583 426.865 157.711V172.399L430.705 175.183V175.375H421.777V158.815C421.777 155.359 421.105 153.535 418.705 153.535C417.073 153.535 415.153 155.071 414.193 157.999V172.399L418.033 175.183V175.375H405.265V175.183L409.105 172.399V143.935L405.265 140.863V140.671ZM205.656 141.25L215.5 167.406L225.32 141.25H232.984V175.375H227.078V164.125L227.664 149.078L217.586 175.375H213.344L203.289 149.102L203.875 164.125V175.375H197.969V141.25H205.656ZM237.438 162.461C237.438 159.977 237.931 157.742 238.915 155.758C239.899 153.758 241.282 152.227 243.063 151.164C244.845 150.086 246.892 149.547 249.204 149.547C252.626 149.547 255.399 150.648 257.524 152.852C259.665 155.055 260.821 157.977 260.993 161.617L261.017 162.953C261.017 165.453 260.532 167.688 259.563 169.656C258.61 171.625 257.235 173.148 255.438 174.227C253.657 175.305 251.595 175.844 249.251 175.844C245.673 175.844 242.806 174.656 240.649 172.281C238.509 169.891 237.438 166.711 237.438 162.742V162.461ZM243.134 162.953C243.134 165.563 243.673 167.609 244.751 169.094C245.829 170.563 247.329 171.297 249.251 171.297C251.173 171.297 252.665 170.547 253.728 169.047C254.806 167.547 255.345 165.352 255.345 162.461C255.345 159.898 254.79 157.867 253.681 156.367C252.587 154.867 251.095 154.117 249.204 154.117C247.345 154.117 245.868 154.859 244.774 156.344C243.681 157.813 243.134 160.016 243.134 162.953ZM270.322 152.945L270.158 150.016H264.791V175.375H270.486V157.328C271.611 155.25 273.322 154.211 275.619 154.211C277.197 154.211 278.33 154.602 279.018 155.383C279.721 156.148 280.072 157.336 280.072 158.945V175.375H285.768V158.617C285.674 152.57 282.986 149.547 277.705 149.547C274.658 149.547 272.197 150.68 270.322 152.945ZM289.565 162.461C289.565 159.977 290.057 157.742 291.042 155.758C292.026 153.758 293.409 152.227 295.19 151.164C296.972 150.086 299.018 149.547 301.331 149.547C304.753 149.547 307.526 150.648 309.651 152.852C311.792 155.055 312.948 157.977 313.12 161.617L313.143 162.953C313.143 165.453 312.659 167.688 311.69 169.656C310.737 171.625 309.362 173.148 307.565 174.227C305.784 175.305 303.722 175.844 301.378 175.844C297.8 175.844 294.932 174.656 292.776 172.281C290.636 169.891 289.565 166.711 289.565 162.742V162.461ZM295.261 162.953C295.261 165.563 295.8 167.609 296.878 169.094C297.956 170.563 299.456 171.297 301.378 171.297C303.3 171.297 304.792 170.547 305.854 169.047C306.932 167.547 307.472 165.352 307.472 162.461C307.472 159.898 306.917 157.867 305.807 156.367C304.714 154.867 303.222 154.117 301.331 154.117C299.472 154.117 297.995 154.859 296.901 156.344C295.807 157.813 295.261 160.016 295.261 162.953ZM327.892 174.35C329.16 174.02 330.407 173.695 332.13 173.695C335.922 173.695 337.41 175.999 337.41 178.207C337.41 182.911 331.794 185.263 326.274 185.263C322.482 185.263 318.162 184.831 315.042 183.727V177.439H315.522C318.93 181.423 322.722 183.103 326.562 183.103C329.538 183.103 331.362 181.903 331.362 179.983C331.362 177.967 329.874 176.959 327.522 176.959C326.518 176.959 325.628 177.129 324.714 177.304C323.747 177.489 322.754 177.679 321.57 177.679C318.402 177.679 315.954 176.239 315.042 174.415L319.17 168.031C316.866 166.111 315.522 163.087 315.522 159.679C315.522 154.063 319.41 150.847 324.642 150.847C326.85 150.847 328.674 151.423 330.162 152.335L336.546 144.463H336.738V153.871L336.018 153.391L333.618 151.759L331.938 153.823C333.858 155.839 334.77 158.671 334.77 161.503C334.77 166.591 331.266 170.335 325.698 170.335C324.21 170.335 322.866 170.047 321.666 169.567C320.706 170.671 320.034 171.727 320.034 172.831C320.034 174.271 321.138 175.039 323.346 175.039C325.249 175.039 326.581 174.692 327.892 174.35ZM332.034 162.367C332.034 158.095 327.762 153.103 323.922 153.103C321.474 153.103 320.13 154.735 320.13 157.039C320.13 161.455 324.642 166.255 328.242 166.255C330.69 166.255 332.034 164.671 332.034 162.367ZM346.834 159.247C348.178 156.175 349.522 155.359 351.058 155.359C352.498 155.359 353.602 155.935 356.002 160.207L356.338 160.159L355.378 151.855C354.418 151.135 353.362 150.847 352.45 150.847C349.666 150.847 348.082 152.575 346.546 156.223H346.354V151.375H337.906V151.615L341.746 154.351V172.399L337.906 175.135V175.375H351.154V175.135L346.834 172.351V159.247ZM378.463 175.375H370.015V172.399H369.823C368.623 174.655 366.415 176.095 363.679 176.095C359.167 176.095 356.239 173.119 356.239 168.367C356.239 163.567 359.311 160.159 364.591 160.159C366.607 160.159 368.383 160.639 369.535 161.359V157.759C369.535 154.159 369.055 152.767 367.135 152.767C365.311 152.767 363.007 154.447 359.215 158.671L359.023 158.575L361.759 149.599H361.951L363.679 152.191C365.071 151.231 366.847 150.847 368.335 150.847C372.607 150.847 374.623 153.007 374.623 157.999V172.399L378.463 175.183V175.375ZM366.463 171.535C367.519 171.535 368.719 171.391 369.535 171.151V166.111C368.239 163.519 366.367 162.127 364.015 162.127C361.615 162.127 359.935 163.759 359.935 166.495C359.935 169.423 362.143 171.535 366.463 171.535ZM388.125 174.847C389.181 175.519 391.197 176.095 393.117 176.095C399.021 176.095 403.341 171.295 403.341 163.135C403.341 156.415 400.221 150.943 394.797 150.943C391.485 150.943 389.229 152.911 388.077 154.735H387.885V151.375H379.197V151.567L383.037 154.351V181.759L379.197 184.543V184.735H388.125V174.847ZM388.125 155.983C388.461 155.887 389.517 155.743 390.477 155.743C395.853 155.743 399.741 160.207 399.741 166.399C399.741 170.911 397.581 173.215 394.413 173.215C391.629 173.215 389.325 171.775 388.125 169.903V155.983Z" fill="black"/>
</g>
<defs>
<clipPath id="clip0">
<rect width="626" height="320" fill="white"/>
</clipPath>
</defs>
</svg>
